<mxfile host="65bd71144e">
    <diagram id="759UUr5zTBEioMdMWIvF" name="Page-1">
        <mxGraphModel dx="916" dy="694" grid="1" gridSize="10" guides="1" tooltips="1" connect="1" arrows="1" fold="1" page="1" pageScale="1" pageWidth="850" pageHeight="1100" math="0" shadow="0">
            <root>
                <mxCell id="0"/>
                <mxCell id="1" parent="0"/>
                <mxCell id="14" value="" style="edgeStyle=orthogonalEdgeStyle;rounded=0;html=1;fontFamily=Courier New;" parent="1" source="2" target="8" edge="1">
                    <mxGeometry relative="1" as="geometry"/>
                </mxCell>
                <mxCell id="16" style="edgeStyle=orthogonalEdgeStyle;rounded=0;html=1;exitX=1;exitY=0.25;exitDx=0;exitDy=0;entryX=0;entryY=0.5;entryDx=0;entryDy=0;fontFamily=Courier New;" parent="1" source="2" target="7" edge="1">
                    <mxGeometry relative="1" as="geometry"/>
                </mxCell>
                <mxCell id="17" style="edgeStyle=orthogonalEdgeStyle;rounded=0;html=1;exitX=1;exitY=0.75;exitDx=0;exitDy=0;entryX=0;entryY=0.5;entryDx=0;entryDy=0;fontFamily=Courier New;" parent="1" source="2" target="9" edge="1">
                    <mxGeometry relative="1" as="geometry"/>
                </mxCell>
                <mxCell id="2" value="Data Buffer" style="rounded=0;whiteSpace=wrap;html=1;fontFamily=Courier New;" parent="1" vertex="1">
                    <mxGeometry x="280" y="40" width="120" height="320" as="geometry"/>
                </mxCell>
                <mxCell id="11" style="edgeStyle=orthogonalEdgeStyle;html=1;exitX=1;exitY=0.5;exitDx=0;exitDy=0;entryX=0;entryY=0.25;entryDx=0;entryDy=0;fontFamily=Courier New;rounded=0;" parent="1" source="3" target="2" edge="1">
                    <mxGeometry relative="1" as="geometry"/>
                </mxCell>
                <mxCell id="3" value="rx inputs:&lt;br&gt;get_rx_data[1:0]&lt;br&gt;store_rx_data&lt;br&gt;rx_data_in[7:0]" style="rounded=0;whiteSpace=wrap;html=1;fontFamily=Courier New;align=left;spacingLeft=5;spacing=2;" parent="1" vertex="1">
                    <mxGeometry x="40" y="40" width="160" height="80" as="geometry"/>
                </mxCell>
                <mxCell id="12" style="edgeStyle=orthogonalEdgeStyle;rounded=0;html=1;exitX=1;exitY=0.5;exitDx=0;exitDy=0;entryX=0;entryY=0.5;entryDx=0;entryDy=0;fontFamily=Courier New;" parent="1" source="4" target="2" edge="1">
                    <mxGeometry relative="1" as="geometry"/>
                </mxCell>
                <mxCell id="4" value="tx inputs:&lt;br&gt;get_tx_data&lt;br&gt;store_tx_data[1:0]&lt;br&gt;tx_data_in[31:0]" style="rounded=0;whiteSpace=wrap;html=1;fontFamily=Courier New;align=left;spacingLeft=5;spacing=2;" parent="1" vertex="1">
                    <mxGeometry x="40" y="160" width="160" height="80" as="geometry"/>
                </mxCell>
                <mxCell id="13" style="edgeStyle=orthogonalEdgeStyle;rounded=0;html=1;exitX=1;exitY=0.5;exitDx=0;exitDy=0;entryX=0;entryY=0.75;entryDx=0;entryDy=0;fontFamily=Courier New;" parent="1" source="5" target="2" edge="1">
                    <mxGeometry relative="1" as="geometry"/>
                </mxCell>
                <mxCell id="5" value="other inputs:&lt;br&gt;flush&lt;br&gt;clear" style="rounded=0;whiteSpace=wrap;html=1;fontFamily=Courier New;align=left;spacingLeft=5;spacing=2;" parent="1" vertex="1">
                    <mxGeometry x="40" y="280" width="160" height="80" as="geometry"/>
                </mxCell>
                <mxCell id="7" value="rx outputs:&lt;br&gt;rx_data_out[31:0]" style="rounded=0;whiteSpace=wrap;html=1;fontFamily=Courier New;align=left;spacingLeft=5;spacing=2;" parent="1" vertex="1">
                    <mxGeometry x="480" y="40" width="160" height="80" as="geometry"/>
                </mxCell>
                <mxCell id="8" value="tx outputs:&lt;br&gt;tx_data_out[7:0]" style="rounded=0;whiteSpace=wrap;html=1;fontFamily=Courier New;align=left;spacingLeft=5;spacing=2;" parent="1" vertex="1">
                    <mxGeometry x="480" y="160" width="160" height="80" as="geometry"/>
                </mxCell>
                <mxCell id="9" value="other outputs:&lt;br&gt;buffer_occ[6:0]" style="rounded=0;whiteSpace=wrap;html=1;fontFamily=Courier New;align=left;spacingLeft=5;spacing=2;" parent="1" vertex="1">
                    <mxGeometry x="480" y="280" width="160" height="80" as="geometry"/>
                </mxCell>
                <mxCell id="18" value="outputs:&lt;br&gt;always:&lt;br&gt;rx_data_out = data[rx_r_pos+3:rx_r_pos]&amp;nbsp;&lt;br&gt;tx_data_out = data[tx_r_pos]&lt;br&gt;&amp;nbsp;" style="text;html=1;align=left;verticalAlign=middle;resizable=0;points=[];autosize=1;strokeColor=none;fillColor=none;fontFamily=Courier New;labelBorderColor=default;" parent="1" vertex="1">
                    <mxGeometry x="40" y="960" width="300" height="80" as="geometry"/>
                </mxCell>
                <mxCell id="19" value="flush/clear:&lt;br&gt;ff:&lt;br&gt;if (flush || clear)&amp;nbsp;&lt;br&gt;&amp;nbsp; &amp;nbsp; data&amp;nbsp; &amp;nbsp; &amp;nbsp; &amp;nbsp;&amp;lt;= 0&lt;br&gt;&amp;nbsp; &amp;nbsp; buffer_occ &amp;lt;= 0&lt;br&gt;&amp;nbsp; &amp;nbsp; rx_w_pos&amp;nbsp; &amp;nbsp;&amp;lt;= 0&lt;br&gt;&amp;nbsp; &amp;nbsp; rx_r_pos&amp;nbsp; &amp;nbsp;&amp;lt;= 0&lt;br&gt;&amp;nbsp; &amp;nbsp; tx_w_pos&amp;nbsp; &amp;nbsp;&amp;lt;= 0&lt;br&gt;&amp;nbsp; &amp;nbsp; tx_r_pos&amp;nbsp; &amp;nbsp;&amp;lt;= 0&lt;br&gt;&amp;nbsp;" style="text;html=1;align=left;verticalAlign=middle;resizable=0;points=[];autosize=1;strokeColor=none;fillColor=none;fontFamily=Courier New;labelBorderColor=default;" parent="1" vertex="1">
                    <mxGeometry x="530" y="720" width="160" height="150" as="geometry"/>
                </mxCell>
                <mxCell id="20" value="rx inputs:&lt;br&gt;ff:&lt;br&gt;if (tx_w_pos == 0)&lt;br&gt;&amp;nbsp; &amp;nbsp; if (store_rx_data)&lt;br&gt;&amp;nbsp; &amp;nbsp;&amp;nbsp;&amp;nbsp; &amp;nbsp; buffer_occ&amp;nbsp; &amp;nbsp; &amp;nbsp; &amp;nbsp;&amp;lt;= buffer_occ + 1&amp;nbsp;&lt;br&gt;&amp;nbsp; &amp;nbsp;&amp;nbsp;&amp;nbsp; &amp;nbsp; data[rx_w_pos+1] &amp;lt;= rx_data_in&lt;br&gt;&amp;nbsp; &amp;nbsp;&amp;nbsp;&amp;nbsp; &amp;nbsp; rx_w_pos&amp;nbsp; &amp;nbsp; &amp;nbsp; &amp;nbsp; &amp;nbsp;&amp;lt;= rx_w_pos + 1&lt;br&gt;&amp;nbsp; &amp;nbsp;&amp;nbsp;else if (|get_rx_data)&lt;br&gt;&amp;nbsp; &amp;nbsp;&amp;nbsp;&amp;nbsp; &amp;nbsp; buffer_occ&amp;nbsp; &amp;nbsp;&amp;lt;= buffer_occ - get_rx_data&amp;nbsp;&lt;br&gt;&amp;nbsp; &amp;nbsp;&amp;nbsp;&amp;nbsp; &amp;nbsp; rx_r_pos&amp;nbsp; &amp;nbsp; &amp;nbsp;&amp;lt;= rx_r_pos + get_rx_data&amp;nbsp;&lt;br&gt;&amp;nbsp;" style="text;html=1;align=left;verticalAlign=middle;resizable=0;points=[];autosize=1;strokeColor=none;fillColor=none;fontFamily=Courier New;labelBorderColor=default;" parent="1" vertex="1">
                    <mxGeometry x="40" y="520" width="370" height="160" as="geometry"/>
                </mxCell>
                <mxCell id="22" value="tx inputs:&lt;br&gt;ff:&lt;br&gt;if (rx_w_pos == 0)&lt;br&gt;&amp;nbsp; &amp;nbsp;&amp;nbsp;if (get_tx_data)&lt;br&gt;&amp;nbsp; &amp;nbsp;&amp;nbsp;&amp;nbsp; &amp;nbsp; buffer_occ &amp;lt;= buffer_occ - 1&lt;br&gt;&amp;nbsp; &amp;nbsp;&amp;nbsp;&amp;nbsp; &amp;nbsp; tx_r_pos&amp;nbsp; &amp;nbsp;&amp;lt;= tx_r_pos + 1&amp;nbsp;&lt;br&gt;&amp;nbsp; &amp;nbsp;&amp;nbsp;else if (store_tx_data)&lt;br&gt;&amp;nbsp; &amp;nbsp;&amp;nbsp;&amp;nbsp; &amp;nbsp; buffer_occ &amp;lt;= buffer_occ + store_tx_data&amp;nbsp;&lt;br&gt;&amp;nbsp; &amp;nbsp;&amp;nbsp;&amp;nbsp; &amp;nbsp; tx_w_pos&amp;nbsp; &amp;nbsp;&amp;lt;= tx_w_pos + store_tx_data&lt;br&gt;&amp;nbsp; &amp;nbsp; &amp;nbsp; &amp;nbsp; case (store_tx_data)&lt;br&gt;&amp;nbsp; &amp;nbsp; &amp;nbsp; &amp;nbsp; &amp;nbsp; &amp;nbsp; 1: data[tx_w_pos+1] &amp;lt;= tx_data_in[7:0]&lt;br&gt;&amp;nbsp; &amp;nbsp; &amp;nbsp; &amp;nbsp; &amp;nbsp; &amp;nbsp; 2: data[tx_w_pos+2:tx_w_pos+1] &amp;lt;= tx_data_in[15:0]&amp;nbsp;&lt;br&gt;&amp;nbsp; &amp;nbsp; &amp;nbsp; &amp;nbsp; &amp;nbsp; &amp;nbsp; 3: data[tx_w_pos+4:tx_w_pos+1] &amp;lt;= tx_data_in&lt;br&gt;&amp;nbsp;" style="text;html=1;align=left;verticalAlign=middle;resizable=0;points=[];autosize=1;strokeColor=none;fillColor=none;fontFamily=Courier New;labelBorderColor=default;" parent="1" vertex="1">
                    <mxGeometry x="40" y="720" width="470" height="200" as="geometry"/>
                </mxCell>
                <mxCell id="23" value="Overview:&lt;br&gt;&lt;br&gt;always:&lt;br&gt;if in rx mode:&lt;br&gt;&amp;nbsp; &amp;nbsp; output rx_data_out based on read pointer&amp;nbsp;&lt;br&gt;else (in tx mode):&lt;br&gt;&amp;nbsp; &amp;nbsp; output tx_data_out based on read pointer&lt;br&gt;&lt;br&gt;when flush or clear:&lt;br&gt;&amp;nbsp; &amp;nbsp; reset all data and pointers&lt;br&gt;&lt;br&gt;when get_rx_data, if not in tx mode:&lt;br&gt;&amp;nbsp; &amp;nbsp; increment read pointer by amount&lt;br&gt;when store_rx_data, if not in tx mode:&lt;br&gt;&amp;nbsp; &amp;nbsp; set rx mode&lt;br&gt;&amp;nbsp; &amp;nbsp; save data&lt;br&gt;&lt;br&gt;similar actions when get_tx and store_tx" style="text;html=1;align=left;verticalAlign=middle;resizable=0;points=[];autosize=1;strokeColor=none;fillColor=none;fontFamily=Courier New;labelBorderColor=default;" vertex="1" parent="1">
                    <mxGeometry x="440" y="400" width="340" height="260" as="geometry"/>
                </mxCell>
            </root>
        </mxGraphModel>
    </diagram>
</mxfile>